<svg xmlns="http://www.w3.org/2000/svg" viewBox="0 0 1200 900" role="img" aria-labelledby="title desc">
  <title id="title">hero-detail placeholder</title>
  <desc id="desc">TODO replace with real client auto detailing photo.</desc>
  <defs>
    <linearGradient id="bg" x1="0" y1="0" x2="1" y2="1"><stop stop-color="#050505"/><stop offset="0.6" stop-color="#1f1f1f"/><stop offset="1" stop-color="#0f1706"/></linearGradient>
    <radialGradient id="glow" cx="78%" cy="18%" r="60%"><stop stop-color="#d6ff4b" stop-opacity=".35"/><stop offset="1" stop-color="#d6ff4b" stop-opacity="0"/></radialGradient>
  </defs>
  <rect width="1200" height="900" fill="url(#bg)"/><rect width="1200" height="900" fill="url(#glow)"/>
  <g opacity=".9"><path d="M218 542h764c37 0 67 30 67 67v20c0 28-23 51-51 51H202c-28 0-51-23-51-51v-20c0-37 30-67 67-67Z" fill="#171717" stroke="#d6ff4b" stroke-width="7"/>
  <path d="M336 542 452 389h312l120 153H336Z" fill="#242424" stroke="#d6ff4b" stroke-width="7"/><circle cx="334" cy="682" r="68" fill="#050505" stroke="#f7f7f5" stroke-width="12"/><circle cx="866" cy="682" r="68" fill="#050505" stroke="#f7f7f5" stroke-width="12"/></g>
  <rect x="72" y="72" width="486" height="88" rx="44" fill="#d6ff4b"/><text x="112" y="128" font-family="Arial, sans-serif" font-size="34" font-weight="800" fill="#050505">PLACEHOLDER IMAGE</text>
  <text x="78" y="224" font-family="Arial, sans-serif" font-size="56" font-weight="900" fill="#ffffff">HERO-DETAIL</text>
  <text x="78" y="282" font-family="Arial, sans-serif" font-size="30" fill="#b7b7b7">TODO: replace with real client photo</text>
</svg>