<svg xmlns="http://www.w3.org/2000/svg" width="900" height="560" viewBox="0 0 900 560" role="img" aria-label="Vendor coordination service thumbnail">

  <defs>
    <linearGradient id="sky" x1="0" y1="0" x2="0" y2="1"><stop stop-color="#dff8fb"/><stop offset=".54" stop-color="#f7fbf4"/><stop offset="1" stop-color="#f7e5bf"/></linearGradient>
    <linearGradient id="ocean" x1="0" y1="0" x2="1" y2="1"><stop stop-color="#73d8df"/><stop offset="1" stop-color="#18749a"/></linearGradient>
    <linearGradient id="deep" x1="0" y1="0" x2="1" y2="1"><stop stop-color="#083657"/><stop offset="1" stop-color="#0f6f91"/></linearGradient>
    <filter id="shadow" x="-20%" y="-20%" width="140%" height="140%"><feDropShadow dx="0" dy="20" stdDeviation="18" flood-color="#062238" flood-opacity=".18"/></filter>
    <style>.label{font-family:Inter,Arial,sans-serif;font-weight:900;letter-spacing:.1em;text-transform:uppercase}.body{font-family:Inter,Arial,sans-serif;font-weight:800}.thin{stroke-linecap:round;stroke-linejoin:round}</style>
  </defs>

  <rect width="900" height="560" rx="38" fill="url(#sky)"/>
  <path d="M0 404 C154 350 260 440 410 382 C572 320 680 352 900 298 L900 560 L0 560Z" fill="#f4dcae"/>
  <path d="M0 342 C132 300 244 356 370 318 C528 270 682 300 900 232 L900 372 C714 427 570 394 430 434 C260 482 148 410 0 466Z" fill="url(#ocean)" opacity=".55"/>
  <circle cx="746" cy="112" r="54" fill="#f3c96d" opacity=".9"/>
  <path d="M706 112h80" class="thin" stroke="#fff4d4" stroke-width="10" opacity=".8"/>
  <g filter="url(#shadow)">
    <rect x="208" y="224" width="252" height="142" rx="30" fill="#fffdf8"/>
    <rect x="460" y="260" width="188" height="106" rx="24" fill="#d8f0f1"/>
    <circle cx="282" cy="382" r="34" fill="#083657"/><circle cx="574" cy="382" r="34" fill="#083657"/>
    <rect x="256" y="176" width="156" height="84" rx="18" fill="url(#deep)"/>
    <path d="M526 198 C566 198 590 222 590 258" class="thin" fill="none" stroke="#18749a" stroke-width="16"/>
    <path d="M390 230 C436 186 486 190 530 232" class="thin" fill="none" stroke="#f3c96d" stroke-width="24"/>
    <path d="M382 242 C424 288 494 288 538 242" class="thin" fill="none" stroke="#083657" stroke-width="18"/>
    <rect x="634" y="146" width="82" height="116" rx="18" fill="#fffdf8"/>
    <path d="M654 182 h42 M654 214 h30" class="thin" stroke="#18749a" stroke-width="10"/>
    <text x="450" y="474" text-anchor="middle" class="label" font-size="28" fill="#083657">VENDORS HANDLED</text>
</g>
</svg>