<svg xmlns="http://www.w3.org/2000/svg" width="900" height="560" viewBox="0 0 900 560" role="img" aria-label="Storm preparation coastal home thumbnail">

  <defs>
    <linearGradient id="sky" x1="0" y1="0" x2="0" y2="1"><stop stop-color="#dff8fb"/><stop offset=".54" stop-color="#f7fbf4"/><stop offset="1" stop-color="#f7e5bf"/></linearGradient>
    <linearGradient id="ocean" x1="0" y1="0" x2="1" y2="1"><stop stop-color="#73d8df"/><stop offset="1" stop-color="#18749a"/></linearGradient>
    <linearGradient id="deep" x1="0" y1="0" x2="1" y2="1"><stop stop-color="#083657"/><stop offset="1" stop-color="#0f6f91"/></linearGradient>
    <filter id="shadow" x="-20%" y="-20%" width="140%" height="140%"><feDropShadow dx="0" dy="20" stdDeviation="18" flood-color="#062238" flood-opacity=".18"/></filter>
    <style>.label{font-family:Inter,Arial,sans-serif;font-weight:900;letter-spacing:.1em;text-transform:uppercase}.body{font-family:Inter,Arial,sans-serif;font-weight:800}.thin{stroke-linecap:round;stroke-linejoin:round}</style>
  </defs>

  <rect width="900" height="560" rx="38" fill="url(#sky)"/>
  <path d="M0 404 C154 350 260 440 410 382 C572 320 680 352 900 298 L900 560 L0 560Z" fill="#f4dcae"/>
  <path d="M0 342 C132 300 244 356 370 318 C528 270 682 300 900 232 L900 372 C714 427 570 394 430 434 C260 482 148 410 0 466Z" fill="url(#ocean)" opacity=".55"/>
  <circle cx="746" cy="112" r="54" fill="#f3c96d" opacity=".9"/>
  <path d="M706 112h80" class="thin" stroke="#fff4d4" stroke-width="10" opacity=".8"/>
  <g filter="url(#shadow)">
    <path d="M204 204 L384 104 L564 204 Z" fill="url(#deep)"/>
    <rect x="240" y="204" width="288" height="174" rx="22" fill="#fffdf8"/>
    <rect x="294" y="250" width="78" height="88" rx="10" fill="#bfe9ed"/>
    <rect x="402" y="250" width="78" height="88" rx="10" fill="#bfe9ed"/>
    <path d="M284 246 h98 M394 246 h98" class="thin" stroke="#0f6f91" stroke-width="12" opacity=".65"/>
    <g fill="#083657" opacity=".9"><path d="M646 134 C712 134 748 176 748 222 C748 270 708 304 654 304 H534 C486 304 454 274 454 232 C454 190 488 158 534 158 C560 124 600 106 646 134Z"/></g>
    <g class="thin" stroke="#73d8df" stroke-width="14"><path d="M610 326 l-34 68"/><path d="M676 326 l-34 68"/><path d="M742 326 l-34 68"/></g>
    <text x="450" y="462" text-anchor="middle" class="label" font-size="28" fill="#083657">STORM READY</text>
</g>
</svg>