<svg xmlns="http://www.w3.org/2000/svg" width="900" height="560" viewBox="0 0 900 560" role="img" aria-label="Home watch service coastal property thumbnail">

  <defs>
    <linearGradient id="sky" x1="0" y1="0" x2="0" y2="1"><stop stop-color="#dff8fb"/><stop offset=".54" stop-color="#f7fbf4"/><stop offset="1" stop-color="#f7e5bf"/></linearGradient>
    <linearGradient id="ocean" x1="0" y1="0" x2="1" y2="1"><stop stop-color="#73d8df"/><stop offset="1" stop-color="#18749a"/></linearGradient>
    <linearGradient id="deep" x1="0" y1="0" x2="1" y2="1"><stop stop-color="#083657"/><stop offset="1" stop-color="#0f6f91"/></linearGradient>
    <filter id="shadow" x="-20%" y="-20%" width="140%" height="140%"><feDropShadow dx="0" dy="20" stdDeviation="18" flood-color="#062238" flood-opacity=".18"/></filter>
    <style>.label{font-family:Inter,Arial,sans-serif;font-weight:900;letter-spacing:.1em;text-transform:uppercase}.body{font-family:Inter,Arial,sans-serif;font-weight:800}.thin{stroke-linecap:round;stroke-linejoin:round}</style>
  </defs>

  <rect width="900" height="560" rx="38" fill="url(#sky)"/>
  <path d="M0 404 C154 350 260 440 410 382 C572 320 680 352 900 298 L900 560 L0 560Z" fill="#f4dcae"/>
  <path d="M0 342 C132 300 244 356 370 318 C528 270 682 300 900 232 L900 372 C714 427 570 394 430 434 C260 482 148 410 0 466Z" fill="url(#ocean)" opacity=".55"/>
  <circle cx="746" cy="112" r="54" fill="#f3c96d" opacity=".9"/>
  <path d="M706 112h80" class="thin" stroke="#fff4d4" stroke-width="10" opacity=".8"/>
  <g filter="url(#shadow)">
    <rect x="236" y="180" width="330" height="210" rx="24" fill="#fffdf8"/>
    <path d="M210 214 L402 92 L594 214 Z" fill="url(#deep)"/>
    <rect x="290" y="248" width="82" height="142" rx="10" fill="#dbeff0"/>
    <rect x="404" y="252" width="92" height="70" rx="12" fill="#b8e7ec"/>
    <path d="M615 188 C654 235 646 314 598 356" class="thin" fill="none" stroke="#0f6f91" stroke-width="18" opacity=".82"/>
    <circle cx="615" cy="188" r="12" fill="#f3c96d"/>
    <rect x="570" y="290" width="132" height="118" rx="24" fill="#ffffff"/>
    <path d="M604 330 l18 18 l42 -48" class="thin" fill="none" stroke="#18749a" stroke-width="16"/>
    <text x="450" y="465" text-anchor="middle" class="label" font-size="28" fill="#083657">WATCHFUL CARE</text>
</g>
</svg>