<svg xmlns="http://www.w3.org/2000/svg" width="900" height="560" viewBox="0 0 900 560" role="img" aria-label="Property inspections checklist thumbnail">

  <defs>
    <linearGradient id="sky" x1="0" y1="0" x2="0" y2="1"><stop stop-color="#dff8fb"/><stop offset=".54" stop-color="#f7fbf4"/><stop offset="1" stop-color="#f7e5bf"/></linearGradient>
    <linearGradient id="ocean" x1="0" y1="0" x2="1" y2="1"><stop stop-color="#73d8df"/><stop offset="1" stop-color="#18749a"/></linearGradient>
    <linearGradient id="deep" x1="0" y1="0" x2="1" y2="1"><stop stop-color="#083657"/><stop offset="1" stop-color="#0f6f91"/></linearGradient>
    <filter id="shadow" x="-20%" y="-20%" width="140%" height="140%"><feDropShadow dx="0" dy="20" stdDeviation="18" flood-color="#062238" flood-opacity=".18"/></filter>
    <style>.label{font-family:Inter,Arial,sans-serif;font-weight:900;letter-spacing:.1em;text-transform:uppercase}.body{font-family:Inter,Arial,sans-serif;font-weight:800}.thin{stroke-linecap:round;stroke-linejoin:round}</style>
  </defs>

  <rect width="900" height="560" rx="38" fill="url(#sky)"/>
  <path d="M0 404 C154 350 260 440 410 382 C572 320 680 352 900 298 L900 560 L0 560Z" fill="#f4dcae"/>
  <path d="M0 342 C132 300 244 356 370 318 C528 270 682 300 900 232 L900 372 C714 427 570 394 430 434 C260 482 148 410 0 466Z" fill="url(#ocean)" opacity=".55"/>
  <circle cx="746" cy="112" r="54" fill="#f3c96d" opacity=".9"/>
  <path d="M706 112h80" class="thin" stroke="#fff4d4" stroke-width="10" opacity=".8"/>
  <g filter="url(#shadow)">
    <rect x="285" y="112" width="330" height="330" rx="34" fill="#fffdf8"/>
    <rect x="337" y="82" width="226" height="74" rx="20" fill="url(#deep)"/>
    <circle cx="450" cy="120" r="19" fill="#f3c96d"/>
    <g class="thin" stroke="#18749a" stroke-width="14" fill="none">
      <path d="M344 222 l24 24 l46 -58"/><path d="M344 312 l24 24 l46 -58"/><path d="M344 402 l24 24 l46 -58"/>
    </g>
    <g fill="#d8eef0"><rect x="448" y="190" width="112" height="18" rx="9"/><rect x="448" y="224" width="74" height="18" rx="9"/><rect x="448" y="280" width="112" height="18" rx="9"/><rect x="448" y="314" width="88" height="18" rx="9"/><rect x="448" y="370" width="112" height="18" rx="9"/><rect x="448" y="404" width="62" height="18" rx="9"/></g>
    <path d="M642 344 L718 420" class="thin" stroke="#083657" stroke-width="22"/>
    <circle cx="615" cy="318" r="72" fill="none" stroke="#083657" stroke-width="20"/>
    <text x="450" y="500" text-anchor="middle" class="label" font-size="28" fill="#083657">CLEAR REPORTS</text>
</g>
</svg>