<svg xmlns="http://www.w3.org/2000/svg" width="900" height="560" viewBox="0 0 900 560" role="img" aria-label="Dock and vessel oversight thumbnail">

  <defs>
    <linearGradient id="sky" x1="0" y1="0" x2="0" y2="1"><stop stop-color="#dff8fb"/><stop offset=".54" stop-color="#f7fbf4"/><stop offset="1" stop-color="#f7e5bf"/></linearGradient>
    <linearGradient id="ocean" x1="0" y1="0" x2="1" y2="1"><stop stop-color="#73d8df"/><stop offset="1" stop-color="#18749a"/></linearGradient>
    <linearGradient id="deep" x1="0" y1="0" x2="1" y2="1"><stop stop-color="#083657"/><stop offset="1" stop-color="#0f6f91"/></linearGradient>
    <filter id="shadow" x="-20%" y="-20%" width="140%" height="140%"><feDropShadow dx="0" dy="20" stdDeviation="18" flood-color="#062238" flood-opacity=".18"/></filter>
    <style>.label{font-family:Inter,Arial,sans-serif;font-weight:900;letter-spacing:.1em;text-transform:uppercase}.body{font-family:Inter,Arial,sans-serif;font-weight:800}.thin{stroke-linecap:round;stroke-linejoin:round}</style>
  </defs>

  <rect width="900" height="560" rx="38" fill="url(#sky)"/>
  <path d="M0 404 C154 350 260 440 410 382 C572 320 680 352 900 298 L900 560 L0 560Z" fill="#f4dcae"/>
  <path d="M0 342 C132 300 244 356 370 318 C528 270 682 300 900 232 L900 372 C714 427 570 394 430 434 C260 482 148 410 0 466Z" fill="url(#ocean)" opacity=".55"/>
  <circle cx="746" cy="112" r="54" fill="#f3c96d" opacity=".9"/>
  <path d="M706 112h80" class="thin" stroke="#fff4d4" stroke-width="10" opacity=".8"/>
  <g filter="url(#shadow)">
    <path d="M128 344 H592" class="thin" stroke="#7f5e36" stroke-width="24"/>
    <path d="M180 286 V442 M270 286 V442 M360 286 V442 M450 286 V442 M540 286 V442" class="thin" stroke="#6c4c2a" stroke-width="18"/>
    <path d="M552 302 C640 252 756 278 810 340 C758 404 634 416 548 370 C524 354 526 318 552 302Z" fill="#fffdf8"/>
    <path d="M612 284 C662 270 728 284 766 326 H598 C588 308 594 292 612 284Z" fill="#bfe9ed"/>
    <path d="M594 384 C664 416 746 392 810 340" class="thin" fill="none" stroke="#18749a" stroke-width="12" opacity=".65"/>
    <circle cx="214" cy="250" r="58" fill="#fffdf8"/>
    <path d="M214 202 v96 M172 250 h84" class="thin" stroke="#083657" stroke-width="14"/>
    <circle cx="214" cy="250" r="32" fill="none" stroke="#18749a" stroke-width="10"/>
    <text x="450" y="486" text-anchor="middle" class="label" font-size="28" fill="#083657">WATERFRONT WATCH</text>
</g>
</svg>