<svg xmlns="http://www.w3.org/2000/svg" width="900" height="560" viewBox="0 0 900 560" role="img" aria-label="Emergency response coastal support thumbnail">

  <defs>
    <linearGradient id="sky" x1="0" y1="0" x2="0" y2="1"><stop stop-color="#dff8fb"/><stop offset=".54" stop-color="#f7fbf4"/><stop offset="1" stop-color="#f7e5bf"/></linearGradient>
    <linearGradient id="ocean" x1="0" y1="0" x2="1" y2="1"><stop stop-color="#73d8df"/><stop offset="1" stop-color="#18749a"/></linearGradient>
    <linearGradient id="deep" x1="0" y1="0" x2="1" y2="1"><stop stop-color="#083657"/><stop offset="1" stop-color="#0f6f91"/></linearGradient>
    <filter id="shadow" x="-20%" y="-20%" width="140%" height="140%"><feDropShadow dx="0" dy="20" stdDeviation="18" flood-color="#062238" flood-opacity=".18"/></filter>
    <style>.label{font-family:Inter,Arial,sans-serif;font-weight:900;letter-spacing:.1em;text-transform:uppercase}.body{font-family:Inter,Arial,sans-serif;font-weight:800}.thin{stroke-linecap:round;stroke-linejoin:round}</style>
  </defs>

  <rect width="900" height="560" rx="38" fill="url(#sky)"/>
  <path d="M0 404 C154 350 260 440 410 382 C572 320 680 352 900 298 L900 560 L0 560Z" fill="#f4dcae"/>
  <path d="M0 342 C132 300 244 356 370 318 C528 270 682 300 900 232 L900 372 C714 427 570 394 430 434 C260 482 148 410 0 466Z" fill="url(#ocean)" opacity=".55"/>
  <circle cx="746" cy="112" r="54" fill="#f3c96d" opacity=".9"/>
  <path d="M706 112h80" class="thin" stroke="#fff4d4" stroke-width="10" opacity=".8"/>
  <g filter="url(#shadow)">
    <path d="M380 130 L490 130 L520 402 L350 402 Z" fill="#fffdf8"/>
    <path d="M398 176 H502 M390 250 H510 M374 330 H526" class="thin" stroke="#e9bd57" stroke-width="20"/>
    <path d="M435 84 L498 130 H372 Z" fill="url(#deep)"/>
    <circle cx="435" cy="198" r="38" fill="#73d8df"/>
    <path d="M435 160 v76 M397 198 h76" class="thin" stroke="#083657" stroke-width="13"/>
    <path d="M556 318 C626 276 724 292 792 344" class="thin" fill="none" stroke="#083657" stroke-width="18"/>
    <path d="M134 360 C242 312 304 330 382 378" class="thin" fill="none" stroke="#18749a" stroke-width="18" opacity=".75"/>
    <circle cx="640" cy="196" r="52" fill="#fffdf8"/>
    <text x="640" y="215" text-anchor="middle" class="body" font-size="58" fill="#c9963a">!</text>
    <text x="450" y="484" text-anchor="middle" class="label" font-size="28" fill="#083657">QUICK LOCAL HELP</text>
</g>
</svg>